<svg width="71" height="49" viewBox="0 0 71 49" fill="none" xmlns="http://www.w3.org/2000/svg">
<path fill-rule="evenodd" clip-rule="evenodd" d="M0.530151 42.946C0.530151 42.6356 0.578315 42.3271 0.672923 42.0315L13.3146 2.53286C13.7123 1.29039 14.8673 0.447327 16.1718 0.447327H53.297C54.9539 0.447327 56.297 1.79047 56.297 3.44732V32.3129C56.297 33.9697 57.6401 35.3129 59.297 35.3129H67.5302C69.187 35.3129 70.5302 36.656 70.5302 38.3129V43.9053C70.5302 46.6668 68.2916 48.9053 65.5302 48.9053H5.53015C2.76873 48.9053 0.530151 46.6668 0.530151 43.9053V42.946Z" fill="#D9D9D9"/>
<path d="M8.46455 44.3498H3.53015L15.7374 5.44733H21.3995L28.2565 26.1575L24.9839 30.9883L18.6983 11.3572L8.46455 44.3498Z" fill="#26205E"/>
<path d="M41.0354 14.3378H42.6977V19.4254L29.7109 40.0843H42.6977V44.3498H23.4774V40.958L41.0354 14.3378Z" fill="#26205E"/>
<path d="M66.8008 44.3498H47.113L46.9053 9.91826H27.2175L25.9708 5.44733H51.6844V40.0843H66.8008V44.3498Z" fill="#26205E"/>
</svg>
