<svg width="60" height="55" viewBox="0 0 60 55" fill="none" xmlns="http://www.w3.org/2000/svg">
<path d="M3.48505 31.4692L3.04715 31.0772C3.2452 30.8913 3.37043 30.6409 3.4003 30.3709C3.4003 30.0954 3.30848 29.9542 3.13543 29.9471C2.96239 29.94 2.8847 30.1025 2.78228 30.3532L2.57393 30.724C2.51088 30.8909 2.39741 31.0339 2.24931 31.1333C2.10121 31.2326 1.92583 31.2834 1.74756 31.2785C1.62119 31.2629 1.49923 31.2222 1.38885 31.1587C1.27848 31.0953 1.18194 31.0103 1.10491 30.909C1.02789 30.8076 0.971954 30.6918 0.940399 30.5685C0.908844 30.4451 0.90231 30.3167 0.921185 30.1908C0.93701 29.8355 1.09173 29.5007 1.35203 29.2585L1.75462 29.6116C1.59937 29.7746 1.5068 29.9873 1.49329 30.212C1.49329 30.4415 1.57098 30.5898 1.74049 30.5969C1.91 30.604 1.99476 30.4168 2.09364 30.1661L2.26315 29.8129C2.32127 29.6436 2.43393 29.4983 2.58348 29.3999C2.73303 29.3015 2.91101 29.2555 3.08953 29.2691C3.57687 29.2903 3.97946 29.7176 3.94768 30.4168C3.92722 30.8123 3.76265 31.1867 3.48505 31.4692ZM0.765799 27.2808L0.257263 26.4262L0.730484 26.1331L1.14014 27.0407L0.765799 27.2808ZM1.11895 27.9553L1.405 26.1331L1.95591 26.2143L1.77934 27.3762L2.37616 27.468L2.51036 26.4862L3.06127 26.571L2.91648 27.5457L3.58393 27.6446L3.76404 26.4368L4.31496 26.518L4.03597 28.3827L1.11895 27.9553ZM3.00124 25.3879C2.0548 25.1478 1.66986 24.3673 1.84997 23.661C1.89306 23.5013 1.96736 23.3516 2.06858 23.2207C2.1698 23.0898 2.29595 22.9802 2.43973 22.8982L2.76463 23.3432C2.67941 23.3905 2.60435 23.4542 2.54376 23.5305C2.48316 23.6069 2.43821 23.6944 2.41148 23.7882C2.3126 24.1766 2.57746 24.5757 3.14603 24.7205C3.7146 24.8653 4.14191 24.6852 4.24786 24.2685C4.27301 24.1654 4.27658 24.0582 4.25835 23.9537C4.24012 23.8492 4.20048 23.7495 4.14191 23.661L4.63279 23.4244C4.73763 23.5714 4.80849 23.7399 4.84025 23.9176C4.87201 24.0953 4.86387 24.2779 4.81643 24.4521C4.61513 25.1584 3.95827 25.6352 3.00124 25.3879ZM3.93002 22.2838L2.45739 21.7258L2.69047 21.1042L4.2302 21.6869C4.76699 21.8918 5.01772 21.7929 5.13426 21.4856C5.2508 21.1784 5.13426 20.9277 4.59394 20.7228L3.05774 20.1295L3.28376 19.5292L4.75992 20.0907C5.68165 20.4438 5.93944 20.9665 5.67105 21.6763C5.40266 22.3862 4.84821 22.6334 3.93002 22.2838ZM3.86645 18.1307L4.3538 17.1913C4.64338 16.6404 5.0601 16.2837 5.68871 16.6086C6.31732 16.9335 6.31025 17.5056 6.0242 18.0601L5.84056 18.4132L6.77994 18.9006L6.4727 19.4903L3.86645 18.1307ZM5.52979 17.8659C5.69224 17.5551 5.64633 17.3185 5.38853 17.1843C5.13073 17.0501 4.95769 17.1843 4.79877 17.4845L4.63985 17.7846L5.3744 18.166L5.52979 17.8659ZM5.81231 18.0848L5.64633 17.4845L7.54981 17.4138L7.19666 18.0742L5.81231 18.0848ZM5.59336 14.9453L5.94651 14.3873L8.41856 15.98L8.06541 16.538L5.59336 14.9453ZM7.44739 13.1831L6.96711 13.8258L6.52567 13.4727L7.90649 11.6575L8.35146 12.0106L7.84999 12.6534L9.74287 14.0977L9.34028 14.6239L7.44739 13.1831ZM8.61279 10.8064L9.86647 9.46089L10.2761 9.83876L9.47447 10.7004L9.90532 11.103L10.5869 10.3685L10.9966 10.7499L10.3114 11.4844L10.8094 11.9435L11.6393 11.0501L12.0489 11.4315L10.7635 12.8123L8.61279 10.8064ZM8.69401 10.0436L8.75758 9.05123L9.30849 9.08655L9.13545 10.0542L8.69401 10.0436ZM13.5428 9.47854L13.5675 8.88525C13.835 8.90663 14.1018 8.83557 14.3232 8.68396C14.5457 8.51444 14.5846 8.33081 14.4786 8.2072C14.3727 8.0836 14.1961 8.11892 13.9277 8.2072L13.5286 8.31315C13.3605 8.37353 13.1777 8.38014 13.0056 8.33205C12.8335 8.28396 12.6806 8.18357 12.5681 8.04475C12.4983 7.93845 12.4503 7.8193 12.4271 7.69427C12.4039 7.56923 12.4058 7.44082 12.4328 7.31654C12.4597 7.19225 12.5112 7.07459 12.5841 6.97042C12.6571 6.86625 12.7501 6.77767 12.8577 6.70985C13.1384 6.49484 13.4917 6.39734 13.8429 6.43792V6.97118C13.6194 6.96098 13.3994 7.02974 13.2214 7.16541C13.0413 7.30314 12.9848 7.46912 13.0872 7.60332C13.1896 7.73751 13.3874 7.67748 13.6522 7.60332L14.0407 7.49384C14.2071 7.42753 14.3909 7.41862 14.563 7.46851C14.735 7.5184 14.8855 7.62425 14.9907 7.7693C15.2909 8.15423 15.2273 8.73693 14.6764 9.16424C14.3517 9.40822 13.9467 9.52048 13.5428 9.47854ZM15.3721 6.65688C14.8741 5.83404 15.0542 5.08183 15.7252 4.67217C16.3962 4.26252 17.1378 4.46028 17.6499 5.27606C18.162 6.09184 17.9783 6.8723 17.2967 7.28195C16.6152 7.6916 15.8665 7.47971 15.3721 6.65688ZM17.0743 5.62921C16.7705 5.1242 16.368 4.95822 16.0148 5.16305C15.6617 5.36788 15.6334 5.79872 15.9406 6.30373C16.2479 6.80873 16.6469 7.01003 17.0001 6.79107C17.3532 6.57212 17.378 6.13421 17.0743 5.62921ZM18.5151 4.8205C18.1019 3.93762 18.448 3.15363 19.1225 2.83933C19.2735 2.77278 19.4364 2.73725 19.6014 2.73482C19.7664 2.73239 19.9302 2.76313 20.0831 2.8252L19.9454 3.35846C19.8558 3.31906 19.759 3.29872 19.6611 3.29872C19.5632 3.29872 19.4664 3.31906 19.3768 3.35846C19.0236 3.52797 18.8718 3.98353 19.1225 4.51679C19.3733 5.05004 19.7794 5.26547 20.182 5.08183C20.2783 5.03234 20.363 4.96301 20.4306 4.8784C20.4982 4.79379 20.547 4.69582 20.574 4.59095L21.0684 4.8205C21.0203 4.99408 20.9342 5.1548 20.8163 5.291C20.6984 5.42721 20.5517 5.5355 20.3868 5.60802C19.7123 5.92232 18.9318 5.7175 18.5151 4.8205ZM21.1108 2.05533L21.7358 1.82578L22.7494 4.59095L22.1243 4.8205L21.1108 2.05533ZM23.7559 1.17952L24.5257 0.974694L26.1679 3.57741L25.4898 3.75751L24.7376 2.41908C24.5822 2.15775 24.4162 1.83991 24.2644 1.56445C24.2644 1.88582 24.2856 2.23544 24.2644 2.54268V4.07888L23.6075 4.25192L23.7559 1.17952ZM23.8936 2.92408L25.2603 2.57093L25.3909 3.06887L24.0243 3.42202L23.8936 2.92408ZM26.5245 0.512067L27.1814 0.409654L27.5346 2.76516L28.6788 2.59212L28.7635 3.14303L26.9589 3.41496L26.5245 0.512067ZM29.3851 0.116539L31.2214 0L31.2568 0.554445L30.0843 0.632138L30.1231 1.21837L31.1226 1.1548L31.1579 1.71278L30.1585 1.76575L30.2008 2.44027L31.4192 2.36257L31.4545 2.92055L29.5687 3.05122L29.3851 0.116539ZM34.195 8.7334C34.1383 8.65184 34.0643 8.58388 33.9781 8.53441C33.892 8.48494 33.796 8.45521 33.697 8.44735L33.3686 8.41556C33.139 8.35199 28.202 8.43322 27.0437 9.17837C26.9201 8.39437 26.6517 7.44793 25.2991 7.15835C24.3456 6.95705 22.2903 7.86465 22.9789 9.91645C23.04 10.0855 23.1339 10.2408 23.255 10.3735C23.3762 10.5062 23.5224 10.6137 23.6852 10.6898C23.8618 10.7817 24.1408 10.7393 24.3491 11.2761C24.4092 11.435 24.5257 11.4173 24.6281 11.3856C24.7305 11.3538 24.7235 11.3679 24.8471 11.4703C24.8699 11.4928 24.899 11.5078 24.9305 11.5135C24.962 11.5192 24.9945 11.5152 25.0237 11.5021C25.0387 11.5163 25.0565 11.5274 25.0759 11.5347C25.0953 11.542 25.116 11.5453 25.1367 11.5445C25.1861 11.5445 25.2991 11.5092 25.3274 11.5445C25.7194 11.8588 26.1749 11.3644 26.348 11.0536L26.9801 12.9712C26.8283 12.8405 25.2744 12.392 24.5293 13.2255C23.8795 13.9318 23.4062 14.9171 22.8589 16.5875C22.7853 16.8014 22.6591 16.9935 22.4918 17.1459C22.3246 17.2984 22.1217 17.4063 21.9018 17.4597C21.0543 17.7705 21.5487 18.166 21.7641 18.2049C22.4238 18.2986 23.095 18.2723 23.7453 18.1272C24.0596 17.9718 23.8265 17.2478 24.1761 16.7993L24.9495 15.7999C24.977 16.3161 24.8826 16.8314 24.674 17.3043C24.4198 17.9259 23.6464 18.2543 23.4168 18.551C23.0107 19.0736 23.943 19.116 24.1902 19.0312C24.8082 18.8194 25.2497 18.83 25.5075 18.6781C25.8606 18.4733 25.6099 17.9188 25.7264 17.6928C26.0443 17.0642 27.139 15.6905 27.2626 15.4715C27.2799 15.4432 27.2953 15.4137 27.3085 15.3832C27.9515 15.5842 28.6235 15.6761 29.2968 15.6551C31.1014 15.4397 31.504 14.1648 31.3203 13.1831C31.1616 12.5296 30.8479 11.924 30.4057 11.4173C29.9219 10.6475 29.6535 10.2413 29.4945 10.0365C30.0137 9.91292 32.8848 9.12186 32.8954 9.14658C33.0049 9.37966 33.2485 9.43263 33.3333 9.49973C33.5204 9.60215 33.6264 9.44323 33.5522 9.39732C33.4748 9.35233 33.4131 9.28449 33.3757 9.20309C33.5849 9.20091 33.794 9.21626 34.0007 9.249C34.202 9.27725 34.3362 8.82875 34.195 8.7334Z" fill="#26205E"/>
<path fill-rule="evenodd" clip-rule="evenodd" d="M59.7312 26.0519C59.2686 23.5798 56.959 22.0436 55.7689 21.5386C55.3475 21.3529 54.9117 21.2017 54.4658 21.0866L54.0702 20.9559C54.155 20.4191 54.7765 20.3768 55.1509 19.6104C56.2103 17.435 54.0349 15.9024 52.4245 16.2555C51.6653 16.425 51.1356 16.6969 51.0119 17.2761C50.9484 17.5904 50.7047 17.601 50.3056 18.0177C50.1785 18.1519 50.461 18.3709 50.5069 18.4627C50.5069 18.4874 50.4363 18.6039 50.4081 18.7346C50.3798 18.8653 50.4081 18.8441 50.4081 18.8617C50.3562 18.9558 50.3294 19.0616 50.3304 19.169C50.272 19.2845 50.2416 19.4121 50.2416 19.5416C50.2416 19.671 50.272 19.7986 50.3304 19.9141C50.4923 20.1632 50.6039 20.4415 50.6588 20.7334C50.6588 20.8005 50.6588 20.8359 50.3622 20.7334C50.288 20.7123 47.3745 19.8541 47.0496 19.6351C46.7247 19.4162 43.8006 16.259 43.4828 15.6446C43.3097 15.2914 43.1296 15.083 43.0343 15.0901C42.3527 15.1325 43.5287 16.3614 42.8683 15.9412C42.6988 15.8317 42.1903 15.475 42.162 15.4468C42.0349 15.3444 42.0667 15.3938 41.9748 15.2455C41.9205 15.1352 41.8449 15.0368 41.7524 14.9559C41.6782 14.9029 41.6323 14.8888 41.5793 14.9029C41.5263 14.9171 41.491 15.0054 41.4663 15.0124C41.4276 15.0082 41.3885 15.0082 41.3498 15.0124C41.1803 15.0548 41.3074 15.4892 41.3498 15.6905C41.514 16.1485 41.7197 16.5906 41.9642 17.0112C42.7023 17.5198 43.4298 17.9471 43.4545 17.9753C44.2491 18.8971 45.1814 20.0519 46.0149 20.9277C46.6788 21.634 49.7088 23.3997 49.8112 23.4456C50.009 23.5657 50.3233 24.212 49.8713 28.8382C49.7018 30.5793 48.4587 34.2803 49.0484 36.1943C49.6984 37.9605 50.1278 39.8002 50.3268 41.6717C50.4257 42.431 49.836 42.8901 48.9919 43.501C48.6635 43.7412 47.7382 44.3133 47.6429 44.398C47.4875 44.5393 47.6429 44.7512 47.8336 44.85C48.0847 44.9799 48.3457 45.0897 48.6141 45.1785C49.1098 45.2518 49.6157 45.1533 50.0479 44.8995C50.6623 44.5463 50.7188 44.4969 51.079 44.2779C51.4958 44.0272 51.9972 43.946 52.1385 43.5222C52.3115 42.9572 51.8348 42.1484 51.8842 41.7812C52.2374 39.1325 52.6859 37.8224 52.0184 36.1979C51.8842 35.873 52.9861 32.3344 53.0779 32.8112C53.2474 33.7435 53.3145 36.5157 53.3463 38.5781C53.3463 39.4786 54.0844 42.6782 54.3174 43.8259C54.6706 45.5917 51.6865 47.0043 52.3433 47.534C52.6101 47.7162 52.9141 47.8369 53.2333 47.8871C53.5496 47.9593 53.8804 47.9341 54.1823 47.815C54.4841 47.6959 54.743 47.4884 54.9248 47.2197C55.5605 46.4286 55.3663 46.6476 55.8678 46.0825C56.3021 45.5952 55.9914 44.7547 55.9349 44.3168C55.8219 43.4163 55.9172 43.1796 55.9101 41.5622C55.8762 40.524 55.9484 39.4851 56.1256 38.4616C56.5952 35.3609 56.8848 33.6764 57.0296 32.3591V32.285C57.0296 32.285 57.2556 32.3662 57.3545 32.2038C57.4622 31.9831 57.5235 31.7427 57.5346 31.4975C57.5735 31.3244 57.6441 31.5469 57.6441 31.5469C57.7158 31.7277 57.7667 31.9161 57.796 32.1084C57.7466 32.3722 57.6635 32.6286 57.5488 32.8712C57.4287 33.2244 57.7324 33.2738 57.8101 33.302C58.2454 33.0886 58.6296 32.7838 58.9366 32.4086C59.0301 32.1496 59.0733 31.8751 59.0638 31.5999C59.0225 31.0058 58.9375 30.4157 58.8095 29.8341C59.092 28.9195 59.8442 26.6699 59.7312 26.0519ZM57.6123 29.6258C57.5134 30.0672 57.4852 29.6469 57.0685 31.282L57.1144 31.0489V30.3426C57.1144 28.3156 55.5641 23.986 56.5034 24.9077C56.5034 24.9077 57.6335 25.6952 57.8525 26.2956C58.0361 26.7723 57.9725 28.0684 57.6123 29.6258Z" fill="#26205E"/>
<path d="M19.8323 34.4639C19.4792 34.1602 18.2608 32.4898 17.4627 31.8329C17.06 31.3917 16.6927 30.9193 16.3644 30.4203C14.92 28.4956 14.5986 28.3862 13.5957 28.2167C13.3909 28.0789 13.458 27.92 13.4792 27.9129C13.6521 27.869 13.8137 27.7889 13.9533 27.6779C14.093 27.5669 14.2075 27.4275 14.2893 27.2689C14.3711 27.1104 14.4183 26.9363 14.4277 26.7581C14.4372 26.58 14.4088 26.4018 14.3444 26.2355C14.2843 25.9847 14.4538 25.8823 14.4503 25.6422C14.4456 25.3165 14.381 24.9945 14.2596 24.6922C14.2996 24.5786 14.3099 24.4567 14.2895 24.338C14.2691 24.2194 14.2187 24.1079 14.1431 24.0142C13.4368 23.1242 11.671 23.0819 10.7634 23.714C10.0289 24.2225 10.4597 24.5757 10.2302 25.2961C10.1697 25.4943 10.1657 25.7054 10.2188 25.9057C10.2718 26.106 10.3797 26.2875 10.5304 26.4297C10.5657 26.6699 11.2896 27.136 11.1484 27.6445C11.0071 28.1531 10.1454 28.2802 10.1666 28.2802C10.0754 28.3012 9.9875 28.3344 9.90528 28.3791C8.55624 29.149 7.24959 30.2685 7.08008 31.5009C7.15424 32.4933 8.69044 33.9236 9.67926 34.6793C9.82405 36.3709 10.8976 38.9595 10.9471 39.0619C11.0919 39.3727 10.6434 38.8288 9.56272 38.4615C9.03653 38.285 8.34435 37.5681 8.19603 38.4086C8.13246 38.7617 8.28432 39.3691 7.95236 40.1249C7.70162 40.7005 7.99474 41.6222 8.63041 41.6046C9.0895 41.6046 9.36143 40.192 9.36143 40.192C9.36143 40.192 11.5827 41.2973 12.6422 40.93C13.2602 40.7146 13.4015 38.239 12.7905 36.0319C12.5751 35.2585 13.1896 37.2926 14.6728 39.0831C15.0012 39.4786 14.7116 39.7894 14.9271 41.262C14.9877 41.5748 15.0126 41.8935 15.0012 42.212C14.9589 42.9183 14.2773 43.7694 15.8347 44.1684C17.3921 44.5675 17.2932 44.9489 18.2891 44.2814C18.734 43.9813 16.9188 43.7976 16.5657 42.724C16.5451 42.6477 16.5309 42.5697 16.5233 42.491C16.4809 41.6434 16.8765 39.6658 16.7493 39.0018C16.1843 35.6469 14.7752 34.0966 14.5951 33.3126C14.5951 30.9712 14.4256 30.2367 14.6481 30.7629C14.9471 31.3056 15.2884 31.824 15.6687 32.3132C15.7217 32.3803 15.7852 32.4509 15.8523 32.5251C15.9777 32.6751 16.1199 32.8102 16.2761 32.9277C17.2543 33.7823 18.8117 34.8029 19.0201 35.0254C19.0201 35.0254 19.1366 36.0566 19.5604 35.9824C19.9842 35.9083 21.81 35.096 21.7746 34.8912C21.7005 34.5098 19.8959 34.5204 19.8323 34.4639ZM9.66867 33.1643C9.38615 32.6204 8.60922 31.6104 8.66572 31.4444C9.09656 30.7381 9.55919 30.5333 9.69692 30.5792C9.83465 30.6251 9.66867 33.1643 9.66867 33.1643Z" fill="#26205E"/>
<path d="M50.793 53.4422C50.7118 53.3998 49.6135 52.9937 48.6423 51.4398C48.2079 50.7335 44.9448 44.6982 44.4999 43.5187C43.617 41.1843 36.7306 36.9854 36.441 36.7417C36.2361 36.5757 36.2609 36.1696 36.3386 35.9047C36.9177 33.9412 36.6917 32.1825 36.8012 31.9177C37.0837 31.2502 37.5075 30.2791 37.1932 29.6469L36.4869 28.5239C36.4869 28.5239 40.1279 29.8412 40.9719 29.6646C41.6994 29.5092 45.3651 26.9912 45.5628 26.8818C46.0714 26.624 47.2897 27.0054 48.5222 25.6634C48.9849 25.1584 48.6494 24.9853 48.5646 25.0736C48.5226 25.0033 48.4548 24.9521 48.3757 24.931C48.2965 24.9099 48.2123 24.9205 48.1408 24.9606C47.8477 25.1266 46.8342 25.4197 47.0213 25.282C47.7559 24.7311 47.2474 24.5757 47.2474 24.5757C46.926 24.8406 45.464 25.2114 45.1814 25.4444C44.8283 25.7164 44.627 25.9494 44.4751 26.0448C43.2328 26.7422 41.9008 27.2662 40.5163 27.6022C40.2056 27.6728 37.2991 25.7729 35.6181 25.5151C35.0478 25.3852 34.4533 25.4084 33.8948 25.5822C33.2944 25.7517 33.3403 24.8759 33.7853 24.6746C34.0184 24.5651 34.4068 24.4945 34.5516 24.1978C34.5971 24.0805 34.618 23.9551 34.6131 23.8294C34.6083 23.7037 34.5777 23.5803 34.5234 23.4668C34.534 23.4329 34.5373 23.397 34.5331 23.3617C34.5288 23.3264 34.5171 23.2924 34.4986 23.262C34.4563 23.1596 34.4633 23.2125 34.4775 23.1101C34.4916 23.0077 34.4315 22.9759 34.4068 22.8912C34.3942 22.8254 34.4028 22.7574 34.4315 22.6969C34.7847 22.4003 34.6328 22.2626 34.5869 22.2202C34.5128 22.1284 33.9689 21.8953 33.923 21.5421C33.8596 21.1517 33.7407 20.7724 33.5699 20.4156C33.5346 20.3096 33.4745 19.6528 33.1849 19.3879C32.8318 19.0666 32.0866 18.6816 30.4798 19.1054C29.9642 19.2467 30.0596 19.4939 28.767 19.734C27.2238 20.0201 26.3727 22.3155 26.5104 23.2655C26.6234 24.0354 27.2838 23.661 27.2555 24.0036C27.2132 24.5368 27.1567 25.4162 28.2867 25.7446C28.5304 25.8152 30.0101 25.5786 30.5716 25.6775C30.5716 25.6775 31.0307 25.7164 30.8012 26.1755C30.6882 26.4015 29.2049 26.9877 28.8412 27.1431C27.8665 27.5457 25.3768 31.6316 24.6246 32.0166C24.1854 32.2266 23.7648 32.4735 23.3674 32.7546C22.3432 33.3974 21.3438 34.1672 20.7929 34.1672C20.0584 34.1213 19.4615 34.4745 18.9707 35.5798C18.8259 35.9047 18.9106 36.0707 19.1755 36.1378C19.2307 36.2066 19.2998 36.2629 19.3783 36.3031C19.4568 36.3433 19.543 36.3664 19.631 36.3709C19.85 36.5757 20.0972 36.4451 20.2844 36.3462C20.86 36.0319 20.9907 35.7847 21.2167 35.6929C21.7782 35.5092 25.1013 34.2273 25.8394 33.6552C26.9624 33.0407 29.2226 30.7205 29.7241 30.6958C30.1832 30.6534 31.3344 31.6705 30.9813 33.6269C30.8577 34.2944 30.0242 35.4986 29.5687 36.2014C28.6505 37.5928 29.3603 38.8076 29.1802 39.1007C28.2302 40.6511 27.0613 42.7241 25.0907 44.4969C24.3244 44.9948 22.707 45.1078 21.8524 45.3586C19.8888 45.9342 17.7982 47.3433 16.3044 48.1838C15.81 48.4592 15.3367 47.8659 14.7152 47.7953C14.0936 47.7247 14.0407 48.664 13.7228 49.5151C13.624 49.7765 13.5816 49.9001 13.1084 50.9489C12.9212 51.3586 12.4303 52.6229 12.9247 53.1455C13.3768 53.7741 14.4503 51.8036 15.2802 50.843C15.7217 50.3344 15.9865 50.1685 16.9436 49.9495C17.551 49.8083 22.3644 48.5016 25.5428 47.8059C25.6205 47.8059 25.7052 47.7741 25.797 47.7494C29.9254 46.6899 34.2055 41.2867 34.2726 41.3115L41.2827 44.7865C41.989 45.1679 41.989 46.5346 42.833 48.0884C43.3345 49.0278 44.0725 49.8542 47.0708 52.7888C47.4557 53.1667 47.1379 53.7918 47.3145 54.3745C47.491 54.9572 47.7947 55.0102 48.3562 54.9642C48.9178 54.9183 49.3486 54.8371 49.8713 54.8018C50.5387 54.7629 50.3586 54.8336 51.1391 54.9501C51.5169 55.0066 52.3822 55.1302 52.9931 54.5228C54.0773 53.428 51.8171 53.979 50.793 53.4422Z" fill="#26205E"/>
<path d="M43.1826 50.4016C43.1579 50.3512 43.1233 50.3063 43.081 50.2695C43.0386 50.2327 42.9893 50.2048 42.936 50.1873C42.8827 50.1699 42.8264 50.1633 42.7705 50.1679C42.7146 50.1726 42.6602 50.1884 42.6105 50.2144C39.4211 51.8342 35.8786 52.6343 32.3026 52.5424C28.7266 52.4505 25.2298 51.4696 22.1278 49.6882C22.0792 49.6557 22.0245 49.6336 21.967 49.6231C21.9095 49.6126 21.8505 49.614 21.7936 49.6273C21.7367 49.6405 21.6831 49.6653 21.6361 49.7C21.5892 49.7348 21.5499 49.7788 21.5206 49.8294C21.4913 49.8799 21.4727 49.936 21.4659 49.994C21.4592 50.052 21.4644 50.1109 21.4813 50.1668C21.4981 50.2227 21.5263 50.2746 21.564 50.3193C21.6017 50.3639 21.6482 50.4003 21.7005 50.4263C24.9247 52.2768 28.5586 53.296 32.2748 53.3922C35.991 53.4884 39.6728 52.6584 42.9884 50.9772C43.0395 50.9528 43.0851 50.9183 43.1227 50.8759C43.1603 50.8335 43.1889 50.784 43.207 50.7304C43.2251 50.6767 43.2323 50.62 43.2281 50.5635C43.2239 50.507 43.2084 50.452 43.1826 50.4016ZM12.8647 22.3509C12.8039 22.3495 12.7439 22.3363 12.6881 22.312C12.5852 22.2651 12.5051 22.1792 12.4654 22.0733C12.4257 21.9674 12.4296 21.85 12.4762 21.747C14.39 17.516 17.5763 13.9876 21.591 11.6539C21.6393 11.6198 21.6942 11.5961 21.7522 11.5843C21.8101 11.5725 21.8699 11.5728 21.9277 11.5853C21.9856 11.5978 22.0401 11.6222 22.0881 11.6569C22.136 11.6915 22.1762 11.7358 22.2061 11.7868C22.236 11.8378 22.255 11.8945 22.2619 11.9533C22.2688 12.012 22.2634 12.0715 22.2461 12.1281C22.2288 12.1847 22.1999 12.237 22.1613 12.2818C22.1227 12.3267 22.0752 12.363 22.0219 12.3885C18.1612 14.6353 15.0973 18.0301 13.2567 22.1001C13.2215 22.1745 13.1661 22.2375 13.0967 22.2819C13.0274 22.3262 12.947 22.3501 12.8647 22.3509ZM49.3451 16.8806C49.2848 16.8806 49.2252 16.8677 49.1704 16.8428C49.1156 16.8178 49.0667 16.7813 49.0272 16.7358C45.6343 12.8966 40.9841 10.3924 35.9113 9.67277C35.8556 9.66489 35.802 9.64612 35.7536 9.61754C35.7052 9.58896 35.663 9.55113 35.6292 9.5062C35.5954 9.46127 35.5708 9.41014 35.5568 9.3557C35.5428 9.30127 35.5396 9.24461 35.5475 9.18896C35.5554 9.13331 35.5742 9.07975 35.6027 9.03136C35.6313 8.98296 35.6692 8.94066 35.7141 8.90689C35.759 8.87311 35.8101 8.84851 35.8646 8.8345C35.919 8.82049 35.9757 8.81733 36.0313 8.82522C41.3056 9.57341 46.1401 12.1779 49.6664 16.1707C49.7197 16.2326 49.7542 16.3084 49.7658 16.3892C49.7773 16.47 49.7655 16.5524 49.7317 16.6267C49.6979 16.701 49.6435 16.7641 49.575 16.8084C49.5065 16.8528 49.4267 16.8766 49.3451 16.877V16.8806Z" fill="#83BA09"/>
</svg>
